<mxfile host="Electron" agent="Mozilla/5.0 (Windows NT 10.0; Win64; x64) AppleWebKit/537.36 (KHTML, like Gecko) draw.io/24.6.4 Chrome/124.0.6367.207 Electron/30.0.6 Safari/537.36" modified="2024-09-23T15:55:07.980Z" version="24.6.4" etag="eLPF7QWLvBtQNO0NZgOu" type="device">
  <diagram name="Page-1" id="WvqomxNL4ojWPJLpWgv8">
    <mxGraphModel dx="927" dy="495" grid="1" gridSize="10" guides="1" tooltips="1" connect="1" arrows="1" fold="1" page="1" pageScale="1" pageWidth="850" pageHeight="1100" math="0" shadow="0">
      <root>
        <mxCell id="0" />
        <mxCell id="1" parent="0" />
        <mxCell id="LK_k4B-1GMJOAmnirYrm-1" value="&lt;h1 style=&quot;margin-top: 0px;&quot;&gt;&lt;span style=&quot;background-color: initial;&quot;&gt;Job portal application flowchart&lt;/span&gt;&lt;/h1&gt;&lt;div&gt;&lt;span style=&quot;background-color: initial;&quot;&gt;The diagram below shows a flowchart for our job portal application.&lt;/span&gt;&lt;/div&gt;&lt;h1 style=&quot;margin-top: 0px;&quot;&gt;&lt;span style=&quot;background-color: initial; font-size: 12px; font-weight: normal;&quot;&gt;.&lt;/span&gt;&lt;br&gt;&lt;/h1&gt;" style="text;html=1;whiteSpace=wrap;overflow=hidden;rounded=0;" parent="1" vertex="1">
          <mxGeometry x="10" width="460" height="70" as="geometry" />
        </mxCell>
        <mxCell id="LK_k4B-1GMJOAmnirYrm-8" value="" style="edgeStyle=orthogonalEdgeStyle;rounded=0;orthogonalLoop=1;jettySize=auto;html=1;" parent="1" source="LK_k4B-1GMJOAmnirYrm-6" target="LK_k4B-1GMJOAmnirYrm-7" edge="1">
          <mxGeometry relative="1" as="geometry" />
        </mxCell>
        <mxCell id="LK_k4B-1GMJOAmnirYrm-9" style="edgeStyle=orthogonalEdgeStyle;rounded=0;orthogonalLoop=1;jettySize=auto;html=1;entryX=0.5;entryY=0;entryDx=0;entryDy=0;" parent="1" source="LK_k4B-1GMJOAmnirYrm-6" target="LK_k4B-1GMJOAmnirYrm-13" edge="1">
          <mxGeometry relative="1" as="geometry">
            <mxPoint x="800" y="200" as="targetPoint" />
          </mxGeometry>
        </mxCell>
        <mxCell id="LK_k4B-1GMJOAmnirYrm-10" style="edgeStyle=orthogonalEdgeStyle;rounded=0;orthogonalLoop=1;jettySize=auto;html=1;entryX=0.5;entryY=0;entryDx=0;entryDy=0;" parent="1" target="LK_k4B-1GMJOAmnirYrm-11" edge="1">
          <mxGeometry relative="1" as="geometry">
            <mxPoint x="70" y="200" as="targetPoint" />
            <mxPoint x="380" y="100" as="sourcePoint" />
          </mxGeometry>
        </mxCell>
        <mxCell id="LK_k4B-1GMJOAmnirYrm-6" value="START" style="strokeWidth=2;html=1;shape=mxgraph.flowchart.start_1;whiteSpace=wrap;" parent="1" vertex="1">
          <mxGeometry x="350" y="80" width="100" height="40" as="geometry" />
        </mxCell>
        <mxCell id="LK_k4B-1GMJOAmnirYrm-17" value="" style="edgeStyle=orthogonalEdgeStyle;rounded=0;orthogonalLoop=1;jettySize=auto;html=1;" parent="1" source="LK_k4B-1GMJOAmnirYrm-7" target="LK_k4B-1GMJOAmnirYrm-16" edge="1">
          <mxGeometry relative="1" as="geometry" />
        </mxCell>
        <mxCell id="LK_k4B-1GMJOAmnirYrm-7" value="EMPLOYEE" style="whiteSpace=wrap;html=1;strokeWidth=2;" parent="1" vertex="1">
          <mxGeometry x="340" y="180" width="120" height="60" as="geometry" />
        </mxCell>
        <mxCell id="LK_k4B-1GMJOAmnirYrm-15" value="" style="edgeStyle=orthogonalEdgeStyle;rounded=0;orthogonalLoop=1;jettySize=auto;html=1;" parent="1" source="LK_k4B-1GMJOAmnirYrm-11" target="LK_k4B-1GMJOAmnirYrm-14" edge="1">
          <mxGeometry relative="1" as="geometry" />
        </mxCell>
        <mxCell id="LK_k4B-1GMJOAmnirYrm-11" value="ADMINISTRATION" style="whiteSpace=wrap;html=1;" parent="1" vertex="1">
          <mxGeometry x="30" y="180" width="120" height="60" as="geometry" />
        </mxCell>
        <mxCell id="LK_k4B-1GMJOAmnirYrm-19" value="" style="edgeStyle=orthogonalEdgeStyle;rounded=0;orthogonalLoop=1;jettySize=auto;html=1;" parent="1" source="LK_k4B-1GMJOAmnirYrm-13" target="LK_k4B-1GMJOAmnirYrm-18" edge="1">
          <mxGeometry relative="1" as="geometry" />
        </mxCell>
        <mxCell id="LK_k4B-1GMJOAmnirYrm-13" value="EMPLOYER" style="whiteSpace=wrap;html=1;" parent="1" vertex="1">
          <mxGeometry x="720" y="180" width="120" height="60" as="geometry" />
        </mxCell>
        <mxCell id="LK_k4B-1GMJOAmnirYrm-23" style="edgeStyle=orthogonalEdgeStyle;rounded=0;orthogonalLoop=1;jettySize=auto;html=1;exitX=1;exitY=0.5;exitDx=0;exitDy=0;" parent="1" source="LK_k4B-1GMJOAmnirYrm-14" edge="1">
          <mxGeometry relative="1" as="geometry">
            <mxPoint x="90" y="290" as="targetPoint" />
          </mxGeometry>
        </mxCell>
        <mxCell id="LK_k4B-1GMJOAmnirYrm-26" style="edgeStyle=orthogonalEdgeStyle;rounded=0;orthogonalLoop=1;jettySize=auto;html=1;exitX=0.5;exitY=1;exitDx=0;exitDy=0;entryX=0;entryY=0.5;entryDx=0;entryDy=0;" parent="1" target="LK_k4B-1GMJOAmnirYrm-28" edge="1">
          <mxGeometry relative="1" as="geometry">
            <mxPoint x="89.5" y="815.7272338867188" as="targetPoint" />
            <mxPoint x="89.5" y="390" as="sourcePoint" />
            <Array as="points">
              <mxPoint x="90" y="470" />
            </Array>
          </mxGeometry>
        </mxCell>
        <mxCell id="LK_k4B-1GMJOAmnirYrm-14" value="LOGIN" style="rhombus;whiteSpace=wrap;html=1;" parent="1" vertex="1">
          <mxGeometry x="50" y="310" width="80" height="80" as="geometry" />
        </mxCell>
        <mxCell id="LK_k4B-1GMJOAmnirYrm-43" value="" style="edgeStyle=orthogonalEdgeStyle;rounded=0;orthogonalLoop=1;jettySize=auto;html=1;" parent="1" source="LK_k4B-1GMJOAmnirYrm-16" target="LK_k4B-1GMJOAmnirYrm-42" edge="1">
          <mxGeometry relative="1" as="geometry" />
        </mxCell>
        <mxCell id="LK_k4B-1GMJOAmnirYrm-16" value="REGISTRATION" style="rhombus;whiteSpace=wrap;html=1;strokeWidth=2;" parent="1" vertex="1">
          <mxGeometry x="350" y="310" width="100" height="80" as="geometry" />
        </mxCell>
        <mxCell id="LK_k4B-1GMJOAmnirYrm-45" value="" style="edgeStyle=orthogonalEdgeStyle;rounded=0;orthogonalLoop=1;jettySize=auto;html=1;" parent="1" source="LK_k4B-1GMJOAmnirYrm-18" target="LK_k4B-1GMJOAmnirYrm-44" edge="1">
          <mxGeometry relative="1" as="geometry" />
        </mxCell>
        <mxCell id="LK_k4B-1GMJOAmnirYrm-18" value="REGISTRATION" style="rhombus;whiteSpace=wrap;html=1;" parent="1" vertex="1">
          <mxGeometry x="735" y="310" width="90" height="80" as="geometry" />
        </mxCell>
        <mxCell id="LK_k4B-1GMJOAmnirYrm-24" value="NO" style="text;html=1;align=center;verticalAlign=middle;resizable=0;points=[];autosize=1;strokeColor=none;fillColor=none;" parent="1" vertex="1">
          <mxGeometry x="140" y="308" width="40" height="30" as="geometry" />
        </mxCell>
        <mxCell id="LK_k4B-1GMJOAmnirYrm-36" style="edgeStyle=orthogonalEdgeStyle;rounded=0;orthogonalLoop=1;jettySize=auto;html=1;entryX=0;entryY=0.5;entryDx=0;entryDy=0;" parent="1" target="LK_k4B-1GMJOAmnirYrm-29" edge="1">
          <mxGeometry relative="1" as="geometry">
            <mxPoint x="90" y="469" as="sourcePoint" />
            <Array as="points">
              <mxPoint x="90" y="550" />
            </Array>
          </mxGeometry>
        </mxCell>
        <mxCell id="LK_k4B-1GMJOAmnirYrm-37" value="" style="edgeStyle=orthogonalEdgeStyle;rounded=0;orthogonalLoop=1;jettySize=auto;html=1;entryX=0;entryY=0.5;entryDx=0;entryDy=0;exitX=0.087;exitY=0.491;exitDx=0;exitDy=0;exitPerimeter=0;" parent="1" source="LK_k4B-1GMJOAmnirYrm-27" target="LK_k4B-1GMJOAmnirYrm-30" edge="1">
          <mxGeometry relative="1" as="geometry">
            <mxPoint x="70" y="408" as="sourcePoint" />
            <mxPoint x="80" y="570" as="targetPoint" />
            <Array as="points">
              <mxPoint x="89" y="429" />
              <mxPoint x="90" y="630" />
            </Array>
          </mxGeometry>
        </mxCell>
        <mxCell id="LK_k4B-1GMJOAmnirYrm-27" value="YES" style="text;html=1;align=center;verticalAlign=middle;resizable=0;points=[];autosize=1;strokeColor=none;fillColor=none;" parent="1" vertex="1">
          <mxGeometry x="85" y="378" width="50" height="30" as="geometry" />
        </mxCell>
        <mxCell id="LK_k4B-1GMJOAmnirYrm-40" style="edgeStyle=orthogonalEdgeStyle;rounded=0;orthogonalLoop=1;jettySize=auto;html=1;entryX=0;entryY=0.25;entryDx=0;entryDy=0;" parent="1" target="LK_k4B-1GMJOAmnirYrm-77" edge="1">
          <mxGeometry relative="1" as="geometry">
            <mxPoint x="370" y="1000" as="targetPoint" />
            <mxPoint x="90" y="390" as="sourcePoint" />
            <Array as="points">
              <mxPoint x="320" y="390" />
              <mxPoint x="320" y="1010" />
            </Array>
          </mxGeometry>
        </mxCell>
        <mxCell id="LK_k4B-1GMJOAmnirYrm-28" value="MANAGE ACCOUNT" style="whiteSpace=wrap;html=1;" parent="1" vertex="1">
          <mxGeometry x="120" y="450" width="120" height="40" as="geometry" />
        </mxCell>
        <mxCell id="LK_k4B-1GMJOAmnirYrm-29" value="MANAGE EMPLOYERS" style="whiteSpace=wrap;html=1;" parent="1" vertex="1">
          <mxGeometry x="120" y="530" width="120" height="40" as="geometry" />
        </mxCell>
        <mxCell id="LK_k4B-1GMJOAmnirYrm-30" value="MANAGE EMPLOYEES" style="whiteSpace=wrap;html=1;" parent="1" vertex="1">
          <mxGeometry x="120" y="610" width="120" height="40" as="geometry" />
        </mxCell>
        <mxCell id="LK_k4B-1GMJOAmnirYrm-49" style="edgeStyle=orthogonalEdgeStyle;rounded=0;orthogonalLoop=1;jettySize=auto;html=1;" parent="1" source="LK_k4B-1GMJOAmnirYrm-42" edge="1">
          <mxGeometry relative="1" as="geometry">
            <mxPoint x="400" y="450" as="targetPoint" />
            <Array as="points">
              <mxPoint x="470" y="510" />
              <mxPoint x="470" y="450" />
            </Array>
          </mxGeometry>
        </mxCell>
        <mxCell id="LK_k4B-1GMJOAmnirYrm-55" style="edgeStyle=orthogonalEdgeStyle;rounded=0;orthogonalLoop=1;jettySize=auto;html=1;" parent="1" source="LK_k4B-1GMJOAmnirYrm-42" edge="1">
          <mxGeometry relative="1" as="geometry">
            <mxPoint x="400" y="1000" as="targetPoint" />
          </mxGeometry>
        </mxCell>
        <mxCell id="LK_k4B-1GMJOAmnirYrm-66" style="edgeStyle=orthogonalEdgeStyle;rounded=0;orthogonalLoop=1;jettySize=auto;html=1;entryX=0;entryY=0.5;entryDx=0;entryDy=0;" parent="1" source="LK_k4B-1GMJOAmnirYrm-42" target="LK_k4B-1GMJOAmnirYrm-59" edge="1">
          <mxGeometry relative="1" as="geometry" />
        </mxCell>
        <mxCell id="LK_k4B-1GMJOAmnirYrm-67" style="edgeStyle=orthogonalEdgeStyle;rounded=0;orthogonalLoop=1;jettySize=auto;html=1;entryX=0;entryY=0.5;entryDx=0;entryDy=0;" parent="1" source="LK_k4B-1GMJOAmnirYrm-42" target="LK_k4B-1GMJOAmnirYrm-60" edge="1">
          <mxGeometry relative="1" as="geometry" />
        </mxCell>
        <mxCell id="LK_k4B-1GMJOAmnirYrm-68" style="edgeStyle=orthogonalEdgeStyle;rounded=0;orthogonalLoop=1;jettySize=auto;html=1;entryX=0;entryY=0.5;entryDx=0;entryDy=0;" parent="1" source="LK_k4B-1GMJOAmnirYrm-42" target="LK_k4B-1GMJOAmnirYrm-61" edge="1">
          <mxGeometry relative="1" as="geometry" />
        </mxCell>
        <mxCell id="LK_k4B-1GMJOAmnirYrm-75" style="edgeStyle=orthogonalEdgeStyle;rounded=0;orthogonalLoop=1;jettySize=auto;html=1;entryX=0;entryY=0.5;entryDx=0;entryDy=0;" parent="1" source="LK_k4B-1GMJOAmnirYrm-42" target="LK_k4B-1GMJOAmnirYrm-73" edge="1">
          <mxGeometry relative="1" as="geometry" />
        </mxCell>
        <mxCell id="LK_k4B-1GMJOAmnirYrm-42" value="LOGIN" style="rhombus;whiteSpace=wrap;html=1;strokeWidth=2;" parent="1" vertex="1">
          <mxGeometry x="350" y="470" width="100" height="80" as="geometry" />
        </mxCell>
        <mxCell id="LK_k4B-1GMJOAmnirYrm-51" style="edgeStyle=orthogonalEdgeStyle;rounded=0;orthogonalLoop=1;jettySize=auto;html=1;" parent="1" source="LK_k4B-1GMJOAmnirYrm-44" edge="1">
          <mxGeometry relative="1" as="geometry">
            <mxPoint x="780" y="450" as="targetPoint" />
            <Array as="points">
              <mxPoint x="715" y="510" />
              <mxPoint x="715" y="450" />
            </Array>
          </mxGeometry>
        </mxCell>
        <mxCell id="LK_k4B-1GMJOAmnirYrm-56" style="edgeStyle=orthogonalEdgeStyle;rounded=0;orthogonalLoop=1;jettySize=auto;html=1;entryX=1;entryY=0.75;entryDx=0;entryDy=0;" parent="1" source="LK_k4B-1GMJOAmnirYrm-44" target="LK_k4B-1GMJOAmnirYrm-77" edge="1">
          <mxGeometry relative="1" as="geometry">
            <mxPoint x="780" y="1000" as="targetPoint" />
          </mxGeometry>
        </mxCell>
        <mxCell id="LK_k4B-1GMJOAmnirYrm-69" style="edgeStyle=orthogonalEdgeStyle;rounded=0;orthogonalLoop=1;jettySize=auto;html=1;entryX=1;entryY=0.5;entryDx=0;entryDy=0;" parent="1" source="LK_k4B-1GMJOAmnirYrm-44" target="LK_k4B-1GMJOAmnirYrm-62" edge="1">
          <mxGeometry relative="1" as="geometry" />
        </mxCell>
        <mxCell id="LK_k4B-1GMJOAmnirYrm-70" style="edgeStyle=orthogonalEdgeStyle;rounded=0;orthogonalLoop=1;jettySize=auto;html=1;entryX=1;entryY=0.5;entryDx=0;entryDy=0;" parent="1" source="LK_k4B-1GMJOAmnirYrm-44" target="LK_k4B-1GMJOAmnirYrm-63" edge="1">
          <mxGeometry relative="1" as="geometry" />
        </mxCell>
        <mxCell id="LK_k4B-1GMJOAmnirYrm-71" style="edgeStyle=orthogonalEdgeStyle;rounded=0;orthogonalLoop=1;jettySize=auto;html=1;entryX=1;entryY=0.5;entryDx=0;entryDy=0;" parent="1" source="LK_k4B-1GMJOAmnirYrm-44" target="LK_k4B-1GMJOAmnirYrm-64" edge="1">
          <mxGeometry relative="1" as="geometry" />
        </mxCell>
        <mxCell id="LK_k4B-1GMJOAmnirYrm-76" style="edgeStyle=orthogonalEdgeStyle;rounded=0;orthogonalLoop=1;jettySize=auto;html=1;entryX=1;entryY=0.5;entryDx=0;entryDy=0;" parent="1" source="LK_k4B-1GMJOAmnirYrm-44" target="LK_k4B-1GMJOAmnirYrm-74" edge="1">
          <mxGeometry relative="1" as="geometry" />
        </mxCell>
        <mxCell id="LK_k4B-1GMJOAmnirYrm-44" value="LOGIN" style="rhombus;whiteSpace=wrap;html=1;" parent="1" vertex="1">
          <mxGeometry x="735" y="470" width="90" height="80" as="geometry" />
        </mxCell>
        <mxCell id="LK_k4B-1GMJOAmnirYrm-50" value="NO" style="text;html=1;align=center;verticalAlign=middle;resizable=0;points=[];autosize=1;strokeColor=none;fillColor=none;" parent="1" vertex="1">
          <mxGeometry x="460" y="458" width="40" height="30" as="geometry" />
        </mxCell>
        <mxCell id="LK_k4B-1GMJOAmnirYrm-53" value="NO" style="text;html=1;align=center;verticalAlign=middle;resizable=0;points=[];autosize=1;strokeColor=none;fillColor=none;" parent="1" vertex="1">
          <mxGeometry x="660" y="458" width="40" height="30" as="geometry" />
        </mxCell>
        <mxCell id="LK_k4B-1GMJOAmnirYrm-57" value="YES" style="text;html=1;align=center;verticalAlign=middle;resizable=0;points=[];autosize=1;strokeColor=none;fillColor=none;" parent="1" vertex="1">
          <mxGeometry x="405" y="528" width="50" height="30" as="geometry" />
        </mxCell>
        <mxCell id="LK_k4B-1GMJOAmnirYrm-58" value="YES" style="text;html=1;align=center;verticalAlign=middle;resizable=0;points=[];autosize=1;strokeColor=none;fillColor=none;" parent="1" vertex="1">
          <mxGeometry x="775" y="538" width="50" height="30" as="geometry" />
        </mxCell>
        <mxCell id="LK_k4B-1GMJOAmnirYrm-59" value="MANAGE ACCOUNT" style="whiteSpace=wrap;html=1;" parent="1" vertex="1">
          <mxGeometry x="440" y="600" width="120" height="40" as="geometry" />
        </mxCell>
        <mxCell id="LK_k4B-1GMJOAmnirYrm-60" value="SEARCH JOB" style="whiteSpace=wrap;html=1;" parent="1" vertex="1">
          <mxGeometry x="440" y="680" width="120" height="40" as="geometry" />
        </mxCell>
        <mxCell id="LK_k4B-1GMJOAmnirYrm-61" value="APPLY FOR JOB" style="whiteSpace=wrap;html=1;" parent="1" vertex="1">
          <mxGeometry x="440" y="760" width="120" height="40" as="geometry" />
        </mxCell>
        <mxCell id="LK_k4B-1GMJOAmnirYrm-62" value="MANAGE ACCOUNT" style="whiteSpace=wrap;html=1;" parent="1" vertex="1">
          <mxGeometry x="620" y="600" width="120" height="40" as="geometry" />
        </mxCell>
        <mxCell id="LK_k4B-1GMJOAmnirYrm-63" value="POST JOB" style="whiteSpace=wrap;html=1;" parent="1" vertex="1">
          <mxGeometry x="620" y="680" width="120" height="40" as="geometry" />
        </mxCell>
        <mxCell id="LK_k4B-1GMJOAmnirYrm-64" value="SEARCH EMPLOYEE" style="whiteSpace=wrap;html=1;" parent="1" vertex="1">
          <mxGeometry x="620" y="760" width="120" height="40" as="geometry" />
        </mxCell>
        <mxCell id="LK_k4B-1GMJOAmnirYrm-72" value="MANAGE JOB" style="whiteSpace=wrap;html=1;" parent="1" vertex="1">
          <mxGeometry x="620" y="830" width="120" height="40" as="geometry" />
        </mxCell>
        <mxCell id="LK_k4B-1GMJOAmnirYrm-73" value="MESSAGE" style="whiteSpace=wrap;html=1;" parent="1" vertex="1">
          <mxGeometry x="440" y="840" width="120" height="40" as="geometry" />
        </mxCell>
        <mxCell id="LK_k4B-1GMJOAmnirYrm-74" value="MESSAGE" style="whiteSpace=wrap;html=1;" parent="1" vertex="1">
          <mxGeometry x="620" y="900" width="120" height="40" as="geometry" />
        </mxCell>
        <mxCell id="LK_k4B-1GMJOAmnirYrm-79" value="" style="edgeStyle=orthogonalEdgeStyle;rounded=0;orthogonalLoop=1;jettySize=auto;html=1;" parent="1" source="LK_k4B-1GMJOAmnirYrm-77" target="LK_k4B-1GMJOAmnirYrm-78" edge="1">
          <mxGeometry relative="1" as="geometry" />
        </mxCell>
        <mxCell id="LK_k4B-1GMJOAmnirYrm-77" value="LOGOUT" style="whiteSpace=wrap;html=1;" parent="1" vertex="1">
          <mxGeometry x="340" y="1000" width="120" height="40" as="geometry" />
        </mxCell>
        <mxCell id="LK_k4B-1GMJOAmnirYrm-78" value="END" style="ellipse;whiteSpace=wrap;html=1;" parent="1" vertex="1">
          <mxGeometry x="360" y="1060" width="80" height="30" as="geometry" />
        </mxCell>
      </root>
    </mxGraphModel>
  </diagram>
</mxfile>
